<?xml version="1.0" encoding="UTF-8" standalone="no"?>
<!-- Created with Inkscape (http://www.inkscape.org/) -->

<svg
   width="53.869301mm"
   height="67.46875mm"
   viewBox="0 0 53.869301 67.46875"
   version="1.1"
   id="svg22641"
   inkscape:version="1.1.1 (1:1.1+202109281949+c3084ef5ed)"
   sodipodi:docname="logo_fisica.svg"
   inkscape:export-filename="/home/fredi/Documents/encefis/encefis-2022/assets/images/logos/logo_fisica.png"
   inkscape:export-xdpi="56.470589"
   inkscape:export-ydpi="56.470589"
   xmlns:inkscape="http://www.inkscape.org/namespaces/inkscape"
   xmlns:sodipodi="http://sodipodi.sourceforge.net/DTD/sodipodi-0.dtd"
   xmlns:xlink="http://www.w3.org/1999/xlink"
   xmlns="http://www.w3.org/2000/svg"
   xmlns:svg="http://www.w3.org/2000/svg">
  <sodipodi:namedview
     id="namedview22643"
     pagecolor="#ffffff"
     bordercolor="#666666"
     borderopacity="1.0"
     inkscape:pageshadow="2"
     inkscape:pageopacity="0.0"
     inkscape:pagecheckerboard="0"
     inkscape:document-units="mm"
     showgrid="false"
     inkscape:zoom="1.1253621"
     inkscape:cx="107.07664"
     inkscape:cy="91.970395"
     inkscape:window-width="1366"
     inkscape:window-height="704"
     inkscape:window-x="0"
     inkscape:window-y="27"
     inkscape:window-maximized="1"
     inkscape:current-layer="layer1" />
  <defs
     id="defs22638">
    <inkscape:path-effect
       effect="envelope"
       id="path-effect45328"
       is_visible="true"
       lpeversion="1"
       yy="true"
       xx="true"
       bendpath1="m -256.57933,-65.170622 c 42.25683,6.455644 87.44903,7.66532 137.6072,0"
       bendpath2="m -118.97213,-65.170622 v 27.663491"
       bendpath3="m -256.57933,-37.507131 c 47.25833,8.230138 92.85029,6.588509 137.6072,0"
       bendpath4="m -256.57933,-65.170622 v 27.663491"
       bendpath1-nodetypes="cc"
       bendpath3-nodetypes="cc" />
    <filter
       inkscape:collect="always"
       style="color-interpolation-filters:sRGB"
       id="filter51248"
       x="-0.30001016"
       y="-0.29998984"
       width="1.6000203"
       height="1.5999797">
      <feGaussianBlur
         inkscape:collect="always"
         stdDeviation="0.9382816"
         id="feGaussianBlur51250" />
    </filter>
    <filter
       inkscape:collect="always"
       style="color-interpolation-filters:sRGB"
       id="filter51244"
       x="-0.30001016"
       y="-0.29998984"
       width="1.6000203"
       height="1.5999797">
      <feGaussianBlur
         inkscape:collect="always"
         stdDeviation="0.9382816"
         id="feGaussianBlur51246" />
    </filter>
    <filter
       inkscape:collect="always"
       style="color-interpolation-filters:sRGB"
       id="filter51252"
       x="-0.30001016"
       y="-0.29998984"
       width="1.6000203"
       height="1.5999797">
      <feGaussianBlur
         inkscape:collect="always"
         stdDeviation="0.9382816"
         id="feGaussianBlur51254" />
    </filter>
    <filter
       inkscape:collect="always"
       style="color-interpolation-filters:sRGB"
       id="filter51256"
       x="-0.30001016"
       y="-0.29998984"
       width="1.6000203"
       height="1.5999797">
      <feGaussianBlur
         inkscape:collect="always"
         stdDeviation="0.9382816"
         id="feGaussianBlur51258" />
    </filter>
  </defs>
  <g
     inkscape:label="Layer 1"
     inkscape:groupmode="layer"
     id="layer1"
     transform="translate(-76.670001,-124.55051)">
    <g
       id="g66914"
       transform="matrix(0.26665586,0,0,0.26665586,65.020358,119.63191)"
       inkscape:export-filename="/home/fredi/Documents/encefis/encefis-2022/assets/images/logos/logo_fisica.png"
       inkscape:export-xdpi="60.235294"
       inkscape:export-ydpi="60.235294">
      <ellipse
         style="opacity:1;fill:none;fill-opacity:1;stroke:#000000;stroke-width:2.01806;stroke-miterlimit:4;stroke-dasharray:none;stroke-dashoffset:0;stroke-opacity:1"
         id="path1143"
         cx="144.69696"
         cy="144.95454"
         rx="100"
         ry="125.5" />
      <path
         id="ellipse1145"
         style="opacity:1;fill:none;fill-opacity:1;stroke:#000000;stroke-width:1.69895;stroke-miterlimit:4;stroke-dasharray:none;stroke-dashoffset:0;stroke-opacity:1"
         sodipodi:type="arc"
         sodipodi:cx="144.69696"
         sodipodi:cy="144.95454"
         sodipodi:rx="84.187492"
         sodipodi:ry="105.6553"
         sodipodi:start="0.67552763"
         sodipodi:end="0.67538644"
         sodipodi:open="true"
         sodipodi:arc-type="arc"
         d="M 210.39495,211.02177 A 84.187492,105.6553 0 0 1 92.05607,227.40785 84.187492,105.6553 0 0 1 78.995251,78.893141 84.187492,105.6553 0 0 1 197.33321,62.496572 84.187492,105.6553 0 0 1 210.40239,211.01013" />
      <text
         xml:space="preserve"
         style="font-style:normal;font-variant:normal;font-weight:normal;font-stretch:normal;font-size:9.33333px;line-height:1.25;font-family:serif;-inkscape-font-specification:'serif, Normal';font-variant-ligatures:normal;font-variant-caps:normal;font-variant-numeric:normal;font-feature-settings:normal;text-align:start;letter-spacing:0px;word-spacing:0px;writing-mode:lr-tb;text-anchor:start;fill:#00038f;fill-opacity:1;stroke:none"
         id="text1149"
         transform="translate(0,-2)"><textPath
           xlink:href="#ellipse1145"
           id="textPath1154"
           style="font-style:normal;font-variant:normal;font-weight:bold;font-stretch:normal;font-size:8.66667px;font-family:serif;-inkscape-font-specification:'serif, Bold';font-variant-ligatures:normal;font-variant-caps:normal;font-variant-numeric:normal;font-feature-settings:normal;text-align:start;writing-mode:lr-tb;text-anchor:start;fill:#003f89;fill-opacity:1"><tspan
             id="tspan1147"
             dy="-3.030303"
             style="font-style:normal;font-variant:normal;font-weight:bold;font-stretch:normal;font-size:8.66667px;font-family:serif;-inkscape-font-specification:'serif, Bold';font-variant-ligatures:normal;font-variant-caps:normal;font-variant-numeric:normal;font-feature-settings:normal;text-align:start;writing-mode:lr-tb;text-anchor:start;fill:#003f89;fill-opacity:1">                                                                          UNIVERSIDAD NACIONAL DE SAN ANTONIO ABAD DEL CUSCO</tspan></textPath></text>
      <text
         xml:space="preserve"
         style="font-style:normal;font-variant:normal;font-weight:bold;font-stretch:normal;font-size:9.33333px;line-height:1.25;font-family:serif;-inkscape-font-specification:'serif Bold';font-variant-ligatures:normal;font-variant-caps:normal;font-variant-numeric:normal;font-feature-settings:normal;text-align:start;letter-spacing:0px;word-spacing:0px;writing-mode:lr-tb;text-anchor:start;fill:#000000;fill-opacity:1;stroke:none"
         id="text1199"
         transform="matrix(1.107451,0,0,1.107451,-15.532486,-15.584124)"><textPath
           xlink:href="#path1216"
           id="textPath1218"
           style="font-style:normal;font-variant:normal;font-weight:bold;font-stretch:normal;font-size:6.62181px;font-family:serif;-inkscape-font-specification:'serif Bold';font-variant-ligatures:normal;font-variant-caps:normal;font-variant-numeric:normal;font-feature-settings:normal;text-align:start;writing-mode:lr-tb;text-anchor:start;fill:#003f89;fill-opacity:1">                                                                                                                FACULTAD DE CIENCIAS QUÍMICAS, FÍSICAS Y MATEMÁTICAS</textPath></text>
      <path
         sodipodi:open="true"
         sodipodi:end="0.52872323"
         sodipodi:start="0.67552763"
         sodipodi:ry="105.6553"
         sodipodi:rx="84.187492"
         sodipodi:cy="-144.95454"
         sodipodi:cx="144.69696"
         sodipodi:type="arc"
         style="opacity:0.396;fill:none;fill-opacity:1;stroke:none;stroke-width:1.69895;stroke-miterlimit:4;stroke-dasharray:none;stroke-dashoffset:0;stroke-opacity:1"
         id="path1216"
         transform="scale(1,-1)"
         sodipodi:arc-type="arc"
         d="M 210.39495,-78.88732 A 84.187492,105.6553 0 0 1 94.499849,-60.134895 84.187492,105.6553 0 0 1 75.315216,-204.79722 84.187492,105.6553 0 0 1 189.80244,-234.16579 84.187492,105.6553 0 0 1 217.3888,-91.658703" />
      <g
         aria-label="FISICA"
         transform="matrix(0.8085098,0,0,1.2368434,296.35732,263.60974)"
         id="text33049"
         style="font-size:36.5751px;line-height:1.25;font-family:serif;-inkscape-font-specification:serif;letter-spacing:-0.739284px;word-spacing:0px;stroke-width:0.914382"
         inkscape:path-effect="#path-effect45328">
        <path
           d="m -256.31974,-37.938406 c 0.006,-0.720407 0.0101,-1.444537 0.0122,-2.165256 1.13301,0.06493 2.26654,0.137579 3.39887,0.216388 0.0393,-7.715143 0.0357,-15.145759 0.004,-22.366472 -1.13353,-0.07062 -2.26799,-0.135411 -3.40204,-0.193042 -0.002,-0.717814 -0.005,-1.439311 -0.0115,-2.157537 7.69303,0.548067 15.98713,1.44823 23.69467,2.240095 0.0207,1.658942 0.0325,3.465635 0.0396,5.315827 0.18904,0.01344 -2.62988,-0.18585 -2.44084,-0.17241 -0.004,-1.146872 -0.0102,-2.277131 -0.0191,-3.357496 -3.63049,-0.319486 -7.34056,-0.642208 -10.96886,-0.921532 0.0161,2.442353 0.0159,5.498176 0.0158,8.122671 2.24996,0.09049 4.50909,0.201033 6.75724,0.322182 7e-5,0.152619 -0.004,-3.385242 -0.004,-3.232623 0.81338,0.04999 1.62758,0.10133 2.44093,0.153554 0.006,2.62319 0.007,6.084581 2.7e-4,9.105053 -0.81328,-0.04908 -1.62744,-0.09715 -2.44082,-0.143755 2.5e-4,-0.134377 0.003,-3.346729 0.004,-3.481105 -2.24817,-0.118579 -4.50745,-0.226261 -6.75757,-0.313513 -4.9e-4,3.289331 0.001,7.977188 -0.0286,11.624531 1.39149,0.121059 2.78707,0.247825 4.17867,0.377358 -0.008,0.815611 -0.0168,1.643472 -0.0281,2.478314 -4.77507,-0.534941 -9.66981,-1.06072 -14.44414,-1.451232 z"
           style="font-weight:bold"
           id="path45297"
           inkscape:original-d="m -256.57933,-38.02504 v -2.160931 h 3.41105 v -22.341528 h -3.41105 v -2.160931 h 23.77024 v 6.286345 h -2.44668 v -3.839671 h -11.0011 v 8.55443 h 6.76854 v -3.393198 h 2.44667 v 9.215211 h -2.44667 v -3.393198 h -6.76854 v 11.07254 h 4.19685 v 2.160931 z" />
        <path
           d="m -231.21087,-35.286794 c 0.0119,-0.900238 0.0221,-1.787315 0.0308,-2.657465 1.1347,0.108333 2.2658,0.215244 3.40111,0.320635 0.0813,-8.185818 0.0728,-17.520048 0.0324,-22.546195 -0.17847,-0.01561 -3.22633,-0.285714 -3.40479,-0.301324 -0.005,-0.592376 -0.0109,-1.174754 -0.0178,-1.744158 4.60163,0.469185 9.09677,0.907295 13.70925,1.291221 -1.5e-4,-0.02496 0.009,1.62167 0.009,1.596708 -1.14341,-0.08514 -2.28501,-0.17355 -3.42782,-0.264878 0.0343,5.356215 0.0437,13.570644 -0.039,22.576216 1.14184,0.09526 2.2825,0.187052 3.42507,0.275022 2.2e-4,-0.02541 -0.0268,2.847503 -0.0266,2.822097 -4.60785,-0.397773 -9.09741,-0.861699 -13.69198,-1.367879 z"
           style="font-weight:bold"
           id="path45299"
           inkscape:original-d="m -231.35173,-38.02504 v -2.160931 h 3.41106 v -22.341528 h -3.41106 v -2.160931 h 13.71567 v 2.160931 h -3.42892 v 22.341528 h 3.42892 v 2.160931 z" />
        <path
           d="m -213.74217,-35.325646 c 0.0234,-2.77823 0.0402,-5.360004 0.0516,-7.789386 0.75559,0.04151 1.51084,0.08158 2.26666,0.120121 0.33519,2.32919 1.13689,4.243728 2.41575,5.579271 1.28177,1.338584 3.05174,2.101242 5.33362,2.200622 1.85167,0.08064 3.25638,-0.34444 4.22991,-1.237555 0.97061,-0.890423 1.45942,-2.211855 1.46583,-3.867531 0.005,-1.307112 -0.31953,-2.283637 -0.9728,-2.982665 -0.65409,-0.699915 -2.00315,-1.351282 -4.05111,-1.980163 -0.36737,-0.111008 -3.63089,-1.098261 -3.99826,-1.209269 -2.60498,-0.816724 -4.43596,-1.875268 -5.49335,-3.101885 -1.05778,-1.238976 -1.587,-2.909753 -1.59069,-4.833208 -0.004,-2.32069 0.86289,-3.845483 2.61154,-4.804272 1.75209,-0.962096 4.23864,-1.270051 7.40678,-1.107319 1.55929,0.08009 3.19287,0.239113 4.87104,0.470931 1.68846,0.232024 3.45543,0.541262 5.26175,0.928607 -0.009,1.314686 -0.0112,2.834301 -0.0126,4.452806 -0.75736,-0.01049 -1.51437,-0.02305 -2.2716,-0.03767 -0.34375,-1.531292 -1.1023,-2.54846 -2.26891,-3.20055 -1.16043,-0.657298 -2.83958,-1.013231 -4.99154,-1.109065 -1.76408,-0.07856 -3.1029,0.06795 -4.0066,0.478129 -0.89338,0.402709 -1.33852,1.066142 -1.33656,2.048068 0.002,0.895286 0.31255,1.63565 0.93237,2.169678 0.61786,0.522041 2.14037,1.11981 4.55654,1.763013 1.33338,0.342074 2.66924,0.682689 4.0029,1.020832 2.4762,0.638149 4.27364,1.575704 5.37834,2.912495 1.11867,1.339428 1.67583,3.229275 1.66853,5.908521 -0.009,3.137357 -0.94802,5.819598 -2.81749,7.677031 -1.8804,1.852239 -4.60478,2.775934 -8.23354,2.606371 -1.74542,-0.08156 -3.46927,-0.385764 -5.18583,-0.900914 -1.71672,-0.515201 -3.45217,-1.247402 -5.22224,-2.175043 z"
           style="font-weight:bold"
           id="path45301"
           inkscape:original-d="m -213.8749,-39.310883 v -6.322063 h 2.26809 q 0.51791,3.000301 2.44667,4.482593 1.92877,1.482291 5.33982,1.482291 2.76814,0 4.21471,-1.053677 1.44658,-1.053677 1.44658,-3.089596 0,-1.607304 -0.98225,-2.500251 -0.98224,-0.892947 -4.05397,-1.660881 l -4.00041,-0.982241 q -3.9111,-1.000101 -5.50055,-2.768135 -1.58944,-1.785894 -1.58944,-5.071938 0,-3.964684 2.62526,-6.161333 2.64312,-2.214508 7.3936,-2.214508 2.33952,0 4.85763,0.392897 2.53597,0.392896 5.25053,1.17869 v 5.893448 h -2.26809 q -0.51791,-2.750276 -2.26808,-4.01826 -1.75018,-1.285843 -4.98265,-1.285843 -2.64312,0 -4.0004,0.928664 -1.33942,0.910806 -1.33942,2.732417 0,1.660881 0.92867,2.535969 0.92866,0.857229 4.55403,1.785894 l 4.0004,0.982241 q 3.71466,0.928665 5.37554,2.893148 1.67874,1.964483 1.67874,5.411257 0,4.03612 -2.786,6.143474 -2.78599,2.089495 -8.19725,2.089495 -2.6074,0 -5.17909,-0.446473 -2.57169,-0.446473 -5.23267,-1.357279 z" />
        <path
           d="m -189.12791,-32.65535 c 2.2e-4,-0.147229 0.005,-2.792761 0.006,-2.93999 1.14089,-0.0012 2.28112,-0.0083 3.42222,-0.02134 0.008,-5.937912 0.0368,-21.241398 0.0472,-22.537161 -1.14066,0.0078 -2.28051,0.0099 -3.42109,0.0063 0.003,-0.506205 0.008,-0.99325 0.0133,-1.458852 4.60419,0.01828 9.16107,-0.06532 13.7632,-0.245676 -0.008,0.471483 -0.0151,0.963995 -0.0208,1.475446 -1.1464,0.04121 -2.29205,0.07709 -3.43861,0.107486 -0.0261,2.556617 -0.045,15.398206 -0.0439,22.503167 1.14722,-0.03633 2.29359,-0.07823 3.44073,-0.12549 -1e-4,-0.11598 0.004,3.013695 0.004,2.897714 -4.60594,0.21379 -9.16649,0.329851 -13.77216,0.338435 z"
           style="font-weight:bold"
           id="path45303"
           inkscape:original-d="m -189.30807,-38.02504 v -2.160931 h 3.41105 v -22.341528 h -3.41105 v -2.160931 h 13.71566 v 2.160931 h -3.42891 v 22.341528 h 3.42891 v 2.160931 z" />
        <path
           d="m -147.12238,-44.167894 c -0.6985,3.08184 -1.95171,5.627633 -3.76842,7.439014 -1.81744,1.812117 -4.25929,2.94352 -7.33943,3.22603 -4.54736,0.417083 -8.05672,-0.99702 -10.72481,-4.031943 -2.61951,-3.008953 -3.92304,-7.054022 -3.91849,-11.324348 0.005,-4.271404 1.31731,-7.012645 3.94936,-8.999607 2.58185,-1.949501 6.29371,-3.022006 10.73652,-3.400565 1.57982,-0.134611 3.23756,-0.152443 4.94251,-0.03141 1.7063,0.121132 3.52316,0.384232 5.42872,0.826168 -0.0186,1.714771 -0.0288,3.607986 -0.0347,5.582613 0.34829,-0.02244 -2.61692,0.168234 -2.26863,0.145791 -0.45747,-1.995379 -1.29522,-3.31735 -2.51315,-4.107233 -1.21503,-0.79755 -2.83635,-1.074999 -4.84692,-0.919056 -2.57976,0.200091 -4.55881,1.028997 -5.8165,2.601389 -1.27628,1.586298 -1.91666,4.035654 -1.92013,7.995636 -0.003,3.978544 0.63024,7.441319 1.89885,9.681611 1.28062,2.261482 3.20769,3.344873 5.84404,3.127932 1.77958,-0.146439 3.22152,-0.899154 4.34018,-2.18904 1.12922,-1.289272 1.94531,-3.122614 2.45511,-5.384364 0.42511,-0.02835 3.13079,-0.210273 3.5559,-0.23862 z"
           style="letter-spacing:-2.21785px"
           id="path45305"
           inkscape:original-d="m -147.40021,-45.632946 q -1.05368,4.125414 -3.7861,6.125615 -2.73241,2.0002 -7.34002,2.0002 -6.75068,0 -10.67964,-3.714658 -3.91111,-3.732518 -3.91111,-10.108158 0,-6.393499 3.91111,-10.108157 3.92896,-3.732518 10.67964,-3.732518 2.37524,0 4.94693,0.571486 2.57168,0.571486 5.44697,1.732317 v 6.554229 h -2.26808 q -0.6965,-3.35748 -2.53597,-5.018361 -1.83947,-1.678739 -4.85763,-1.678739 -3.89325,0 -5.7863,2.875288 -1.89304,2.85743 -1.89304,8.804455 0,5.947026 1.89304,8.804456 1.89305,2.857429 5.82202,2.857429 2.66098,0 4.33972,-1.482291 1.6966,-1.482292 2.46453,-4.482593 z" />
        <path
           d="m -147.73965,-35.198501 c -3.1e-4,-0.0576 -0.012,-2.58455 -0.0123,-2.642151 0.10305,-0.0093 2.07658,-0.187732 2.17963,-0.196998 3.31233,-10.043824 6.6616,-17.855388 10.05391,-25.095403 1.41731,-0.144801 2.83932,-0.288337 4.25595,-0.42762 3.28764,6.836193 6.67841,15.431411 10.01977,23.558413 0.84354,-0.04749 1.68728,-0.09146 2.5309,-0.131431 7e-5,-0.0888 -0.003,2.244999 -0.003,2.1562 -4.13838,0.280464 -8.30802,0.653113 -12.44942,1.060107 2.4e-4,0.08432 -0.007,-2.47472 -0.007,-2.390396 0.8676,-0.07023 1.7355,-0.13857 2.60292,-0.204504 -0.73095,-1.890509 -1.47475,-3.80639 -2.20513,-5.662822 -3.32553,0.166191 -6.68415,0.370641 -10.01215,0.58619 -0.73982,2.013001 -1.48004,4.117006 -2.21506,6.317361 -0.68644,0.06247 3.86414,-0.350717 3.1777,-0.288242 -1.7e-4,-0.04377 0.0108,2.574225 0.0106,2.530458 -2.66676,0.280875 -5.25697,0.555821 -7.92743,0.830838 z m 7.82581,-11.748851 c 2.74942,-0.16031 5.51534,-0.310243 8.26328,-0.434773 -1.37619,-3.458408 -2.73361,-6.7522 -4.09626,-9.81527 -1.39707,3.226635 -2.78263,6.595368 -4.16702,10.250043 z"
           style="letter-spacing:-2.21785px"
           id="path45307"
           inkscape:original-d="m -148.04648,-38.02504 v -2.160931 h 2.17879 l 10.03672,-24.502459 h 4.26829 l 10.05458,24.502459 h 2.53597 v 2.160931 h -12.4834 v -2.160931 h 2.60741 l -2.19665,-5.446975 h -10.01886 l -2.23237,5.446975 h 3.17889 v 2.160931 z m 7.85793,-9.768837 h 8.26869 l -4.10755,-10.197453 z" />
      </g>
      <g
         id="g50988"
         transform="translate(210.60515,165.29849)">
        <path
           style="opacity:1;fill:none;fill-opacity:1;stroke:#365fb1;stroke-width:1;stroke-miterlimit:4;stroke-dasharray:none;stroke-dashoffset:0;stroke-opacity:1"
           id="path45999"
           sodipodi:type="arc"
           sodipodi:cx="-65.856178"
           sodipodi:cy="-46.633446"
           sodipodi:rx="16.385359"
           sodipodi:ry="66.359558"
           sodipodi:start="0.67552794"
           sodipodi:end="0.67529422"
           sodipodi:arc-type="arc"
           sodipodi:open="true"
           d="m -53.069422,-5.1381905 a 16.385359,66.359558 0 0 1 -23.031928,10.2926377 16.385359,66.359558 0 0 1 -2.542782,-93.2770962 16.385359,66.359558 0 0 1 23.031631,-10.303538 16.385359,66.359558 0 0 1 2.545473,93.275892" />
        <path
           style="opacity:1;fill:none;fill-opacity:1;stroke:#365fb1;stroke-width:1;stroke-miterlimit:4;stroke-dasharray:none;stroke-dashoffset:0;stroke-opacity:1"
           id="path50975"
           sodipodi:type="arc"
           sodipodi:cx="-79.542175"
           sodipodi:cy="13.592524"
           sodipodi:rx="16.385359"
           sodipodi:ry="66.359558"
           sodipodi:start="0.67552794"
           sodipodi:end="0.67529422"
           sodipodi:arc-type="arc"
           sodipodi:open="true"
           transform="rotate(45)"
           d="m -66.755419,55.087779 a 16.385359,66.359558 0 0 1 -23.031928,10.292638 16.385359,66.359558 0 0 1 -2.542782,-93.277097 16.385359,66.359558 0 0 1 23.031631,-10.303538 16.385359,66.359558 0 0 1 2.545473,93.275892" />
        <path
           style="opacity:1;fill:none;fill-opacity:1;stroke:#365fb1;stroke-width:1;stroke-miterlimit:4;stroke-dasharray:none;stroke-dashoffset:0;stroke-opacity:1"
           id="path50977"
           sodipodi:type="arc"
           sodipodi:cx="-46.633446"
           sodipodi:cy="65.856178"
           sodipodi:rx="16.385359"
           sodipodi:ry="66.359558"
           sodipodi:start="0.67552794"
           sodipodi:end="0.67529422"
           sodipodi:arc-type="arc"
           sodipodi:open="true"
           transform="rotate(90)"
           d="m -33.84669,107.35143 a 16.385359,66.359558 0 0 1 -23.031927,10.29264 16.385359,66.359558 0 0 1 -2.542782,-93.277095 16.385359,66.359558 0 0 1 23.031631,-10.303538 16.385359,66.359558 0 0 1 2.545473,93.275893" />
        <path
           style="opacity:1;fill:none;fill-opacity:1;stroke:#365fb1;stroke-width:1;stroke-miterlimit:4;stroke-dasharray:none;stroke-dashoffset:0;stroke-opacity:1"
           id="path50979"
           sodipodi:type="arc"
           sodipodi:cx="13.592524"
           sodipodi:cy="79.542175"
           sodipodi:rx="16.385359"
           sodipodi:ry="66.359558"
           sodipodi:start="0.67552794"
           sodipodi:end="0.67529422"
           sodipodi:arc-type="arc"
           sodipodi:open="true"
           transform="rotate(135)"
           d="M 26.37928,121.03743 A 16.385359,66.359558 0 0 1 3.3473519,131.33007 16.385359,66.359558 0 0 1 0.80457025,38.052972 16.385359,66.359558 0 0 1 23.836201,27.749434 16.385359,66.359558 0 0 1 26.381674,121.02533" />
        <path
           style="opacity:1;fill:none;fill-opacity:1;stroke:#365fb1;stroke-width:1;stroke-miterlimit:4;stroke-dasharray:none;stroke-dashoffset:0;stroke-opacity:1"
           id="path50981"
           sodipodi:type="arc"
           sodipodi:cx="13.592524"
           sodipodi:cy="79.542175"
           sodipodi:rx="16.385359"
           sodipodi:ry="66.359558"
           sodipodi:start="0.67552794"
           sodipodi:end="0.67529422"
           sodipodi:arc-type="arc"
           sodipodi:open="true"
           transform="rotate(135)"
           d="M 26.37928,121.03743 A 16.385359,66.359558 0 0 1 3.3473519,131.33007 16.385359,66.359558 0 0 1 0.80457025,38.052972 16.385359,66.359558 0 0 1 23.836201,27.749434 16.385359,66.359558 0 0 1 26.381674,121.02533" />
      </g>
      <path
         style="opacity:1;fill:#000000;fill-opacity:1;stroke:none;stroke-width:1;stroke-miterlimit:4;stroke-dasharray:none;stroke-dashoffset:0;stroke-opacity:1;filter:url(#filter51248)"
         id="path51012"
         sodipodi:type="arc"
         sodipodi:cx="133.68668"
         sodipodi:cy="70.317978"
         sodipodi:rx="3.7529993"
         sodipodi:ry="3.7532535"
         sodipodi:start="0.67552794"
         sodipodi:end="0.67529407"
         sodipodi:open="true"
         sodipodi:arc-type="arc"
         d="m 136.61543,72.664923 a 3.7529993,3.7532535 0 0 1 -5.27537,0.582145 3.7529993,3.7532535 0 0 1 -0.58241,-5.275692 3.7529993,3.7532535 0 0 1 5.2753,-0.582762 3.7529993,3.7532535 0 0 1 0.58303,5.275624" />
      <path
         style="opacity:1;fill:#2b53dd;fill-opacity:1;stroke:none;stroke-width:1;stroke-miterlimit:4;stroke-dasharray:none;stroke-dashoffset:0;stroke-opacity:1"
         id="path51012-0-9"
         sodipodi:type="arc"
         sodipodi:cx="149.45386"
         sodipodi:cy="120.01335"
         sodipodi:rx="5.5266185"
         sodipodi:ry="5.5269928"
         sodipodi:start="0.67552794"
         sodipodi:end="0.67529407"
         sodipodi:open="true"
         sodipodi:arc-type="arc"
         d="m 153.7667,123.46943 a 5.5266185,5.5269928 0 0 1 -7.76844,0.85726 5.5266185,5.5269928 0 0 1 -0.85765,-7.76891 5.5266185,5.5269928 0 0 1 7.76834,-0.85817 5.5266185,5.5269928 0 0 1 0.85856,7.76881" />
      <path
         style="opacity:1;fill:#ff2700;fill-opacity:1;stroke:none;stroke-width:1;stroke-miterlimit:4;stroke-dasharray:none;stroke-dashoffset:0;stroke-opacity:1"
         id="path51012-0-1"
         sodipodi:type="arc"
         sodipodi:cx="140.84193"
         sodipodi:cy="119.75204"
         sodipodi:rx="5.5266185"
         sodipodi:ry="5.5269928"
         sodipodi:start="0.67552794"
         sodipodi:end="0.67529407"
         sodipodi:open="true"
         sodipodi:arc-type="arc"
         d="m 145.15478,123.20812 a 5.5266185,5.5269928 0 0 1 -7.76844,0.85726 5.5266185,5.5269928 0 0 1 -0.85766,-7.76892 5.5266185,5.5269928 0 0 1 7.76834,-0.85817 5.5266185,5.5269928 0 0 1 0.85857,7.76882" />
      <path
         style="opacity:1;fill:#000000;fill-opacity:1;stroke:none;stroke-width:1;stroke-miterlimit:4;stroke-dasharray:none;stroke-dashoffset:0;stroke-opacity:1;filter:url(#filter51244)"
         id="path51238"
         sodipodi:type="arc"
         sodipodi:cx="185.68668"
         sodipodi:cy="94.317978"
         sodipodi:rx="3.7529993"
         sodipodi:ry="3.7532535"
         sodipodi:start="0.67552794"
         sodipodi:end="0.67529407"
         sodipodi:open="true"
         sodipodi:arc-type="arc"
         d="m 188.61543,96.664923 a 3.7529993,3.7532535 0 0 1 -5.27537,0.582145 3.7529993,3.7532535 0 0 1 -0.58241,-5.275692 3.7529993,3.7532535 0 0 1 5.2753,-0.582762 3.7529993,3.7532535 0 0 1 0.58303,5.275624" />
      <path
         style="opacity:1;fill:#000000;fill-opacity:1;stroke:none;stroke-width:1;stroke-miterlimit:4;stroke-dasharray:none;stroke-dashoffset:0;stroke-opacity:1;filter:url(#filter51252)"
         id="path51240"
         sodipodi:type="arc"
         sodipodi:cx="173.68668"
         sodipodi:cy="162.31798"
         sodipodi:rx="3.7529993"
         sodipodi:ry="3.7532535"
         sodipodi:start="0.67552794"
         sodipodi:end="0.67529407"
         sodipodi:open="true"
         sodipodi:arc-type="arc"
         d="m 176.61543,164.66492 a 3.7529993,3.7532535 0 0 1 -5.27537,0.58215 3.7529993,3.7532535 0 0 1 -0.58241,-5.27569 3.7529993,3.7532535 0 0 1 5.2753,-0.58277 3.7529993,3.7532535 0 0 1 0.58303,5.27563" />
      <path
         style="opacity:1;fill:#000000;fill-opacity:1;stroke:none;stroke-width:1;stroke-miterlimit:4;stroke-dasharray:none;stroke-dashoffset:0;stroke-opacity:1;filter:url(#filter51256)"
         id="path51242"
         sodipodi:type="arc"
         sodipodi:cx="95.686684"
         sodipodi:cy="130.31798"
         sodipodi:rx="3.7529993"
         sodipodi:ry="3.7532535"
         sodipodi:start="0.67552794"
         sodipodi:end="0.67529407"
         sodipodi:open="true"
         sodipodi:arc-type="arc"
         d="m 98.615438,132.66492 a 3.7529993,3.7532535 0 0 1 -5.275369,0.58215 3.7529993,3.7532535 0 0 1 -0.582414,-5.27569 3.7529993,3.7532535 0 0 1 5.275301,-0.58277 3.7529993,3.7532535 0 0 1 0.583031,5.27563" />
      <path
         style="opacity:1;fill:#2b53dd;fill-opacity:1;stroke:none;stroke-width:1;stroke-miterlimit:4;stroke-dasharray:none;stroke-dashoffset:0;stroke-opacity:1"
         id="path51417"
         sodipodi:type="arc"
         sodipodi:cx="140.31261"
         sodipodi:cy="113.58694"
         sodipodi:rx="5.5266185"
         sodipodi:ry="5.5269928"
         sodipodi:start="0.67552794"
         sodipodi:end="0.67529407"
         sodipodi:open="true"
         sodipodi:arc-type="arc"
         d="m 144.62545,117.04302 a 5.5266185,5.5269928 0 0 1 -7.76844,0.85726 5.5266185,5.5269928 0 0 1 -0.85765,-7.76892 5.5266185,5.5269928 0 0 1 7.76834,-0.85817 5.5266185,5.5269928 0 0 1 0.85856,7.76882" />
      <path
         style="opacity:1;fill:#ff2700;fill-opacity:1;stroke:none;stroke-width:1;stroke-miterlimit:4;stroke-dasharray:none;stroke-dashoffset:0;stroke-opacity:1"
         id="path51012-0"
         sodipodi:type="arc"
         sodipodi:cx="148.64914"
         sodipodi:cy="113.60593"
         sodipodi:rx="5.5266185"
         sodipodi:ry="5.5269928"
         sodipodi:start="0.67552794"
         sodipodi:end="0.67529407"
         sodipodi:open="true"
         sodipodi:arc-type="arc"
         d="m 152.96198,117.06201 a 5.5266185,5.5269928 0 0 1 -7.76843,0.85726 5.5266185,5.5269928 0 0 1 -0.85766,-7.76892 5.5266185,5.5269928 0 0 1 7.76834,-0.85817 5.5266185,5.5269928 0 0 1 0.85856,7.76882" />
    </g>
  </g>
</svg>
